<svg width="24" height="24" viewBox="0 0 24 24" fill="none" xmlns="http://www.w3.org/2000/svg">
<path d="M16.2188 10.5938H13.4062V7.78125C13.4062 7.40829 13.2581 7.0506 12.9944 6.78688C12.7306 6.52316 12.373 6.375 12 6.375C11.627 6.375 11.2694 6.52316 11.0056 6.78688C10.7419 7.0506 10.5938 7.40829 10.5938 7.78125V10.5938H7.78125C7.40829 10.5938 7.0506 10.7419 6.78688 11.0056C6.52316 11.2694 6.375 11.627 6.375 12C6.375 12.373 6.52316 12.7306 6.78688 12.9944C7.0506 13.2581 7.40829 13.4062 7.78125 13.4062H10.5938V16.2188C10.5938 16.5917 10.7419 16.9494 11.0056 17.2131C11.2694 17.4768 11.627 17.625 12 17.625C12.373 17.625 12.7306 17.4768 12.9944 17.2131C13.2581 16.9494 13.4062 16.5917 13.4062 16.2188V13.4062H16.2188C16.5917 13.4062 16.9494 13.2581 17.2131 12.9944C17.4768 12.7306 17.625 12.373 17.625 12C17.625 11.627 17.4768 11.2694 17.2131 11.0056C16.9494 10.7419 16.5917 10.5938 16.2188 10.5938Z" fill="#1FA3D8"/>
</svg>
