<svg width="6" height="6" viewBox="0 0 6 6" fill="none" xmlns="http://www.w3.org/2000/svg">
<g clip-path="url(#clip0_489_502)">
<path d="M3 1.5C2.80222 1.5 2.60888 1.55865 2.44443 1.66853C2.27998 1.77841 2.15181 1.93459 2.07612 2.11732C2.00043 2.30004 1.98063 2.50111 2.01922 2.69509C2.0578 2.88907 2.15304 3.06725 2.29289 3.20711C2.43275 3.34696 2.61093 3.4422 2.80491 3.48079C2.99889 3.51937 3.19996 3.49957 3.38268 3.42388C3.56541 3.34819 3.72159 3.22002 3.83147 3.05557C3.94135 2.89112 4 2.69778 4 2.5C4 2.23478 3.89464 1.98043 3.70711 1.79289C3.51957 1.60536 3.26522 1.5 3 1.5ZM3 3C2.90111 3 2.80444 2.97068 2.72222 2.91573C2.63999 2.86079 2.5759 2.7827 2.53806 2.69134C2.50022 2.59998 2.49032 2.49945 2.50961 2.40245C2.5289 2.30546 2.57652 2.21637 2.64645 2.14645C2.71637 2.07652 2.80546 2.0289 2.90246 2.00961C2.99945 1.99031 3.09998 2.00022 3.19134 2.03806C3.28271 2.0759 3.36079 2.13999 3.41574 2.22221C3.47068 2.30444 3.5 2.40111 3.5 2.5C3.5 2.63261 3.44732 2.75979 3.35355 2.85355C3.25979 2.94732 3.13261 3 3 3Z" fill="#1FA3D8"/>
<path d="M3.00008 5.99952C2.78956 6.0006 2.58186 5.95123 2.39434 5.85554C2.20683 5.75985 2.04498 5.62062 1.92233 5.44952C0.969578 4.13527 0.486328 3.14727 0.486328 2.51277C0.486328 1.84609 0.751169 1.2067 1.22259 0.735284C1.69401 0.263864 2.33339 -0.000976562 3.00008 -0.000976562C3.66677 -0.000976562 4.30615 0.263864 4.77757 0.735284C5.24899 1.2067 5.51383 1.84609 5.51383 2.51277C5.51383 3.14727 5.03058 4.13527 4.07783 5.44952C3.95518 5.62062 3.79332 5.75985 3.60581 5.85554C3.4183 5.95123 3.21059 6.0006 3.00008 5.99952ZM3.00008 0.544774C2.47818 0.545369 1.97783 0.752955 1.6088 1.12199C1.23976 1.49103 1.03217 1.99138 1.03158 2.51327C1.03158 3.01577 1.50483 3.94502 2.36383 5.12977C2.43675 5.23022 2.53242 5.31197 2.64301 5.36834C2.75359 5.42471 2.87595 5.4541 3.00008 5.4541C3.1242 5.4541 3.24656 5.42471 3.35715 5.36834C3.46774 5.31197 3.5634 5.23022 3.63633 5.12977C4.49533 3.94502 4.96858 3.01577 4.96858 2.51327C4.96798 1.99138 4.7604 1.49103 4.39136 1.12199C4.02232 0.752955 3.52197 0.545369 3.00008 0.544774Z" fill="#1FA3D8"/>
</g>
<defs>
<clipPath id="clip0_489_502">
<rect width="6" height="6" fill="white"/>
</clipPath>
</defs>
</svg>
