<svg width="28" height="28" viewBox="0 0 28 28" fill="none" xmlns="http://www.w3.org/2000/svg">
<g clip-path="url(#clip0_766_914)">
<path d="M25.6667 3.5H2.33333C1.06167 3.54667 0.0466667 4.56167 0 5.83333V22.1667C0.0466667 23.4383 1.06167 24.4533 2.33333 24.5H25.6667C26.9383 24.4533 27.9533 23.4383 28 22.1667V5.83333C27.9785 5.22133 27.7258 4.64023 27.2928 4.20722C26.8598 3.7742 26.2787 3.52147 25.6667 3.5ZM25.6667 22.1667H2.33333V5.83333H25.6667V22.1667ZM16.3333 19.8333V18.375C16.3333 16.4383 12.4367 15.4583 10.5 15.4583C8.56333 15.4583 4.66667 16.4383 4.66667 18.375V19.8333H16.3333ZM10.5 8.16667C9.72645 8.16667 8.98459 8.47396 8.43761 9.02094C7.89062 9.56792 7.58333 10.3098 7.58333 11.0833C7.58333 11.4664 7.65877 11.8456 7.80535 12.1995C7.95193 12.5534 8.16677 12.8749 8.43761 13.1457C8.98459 13.6927 9.72645 14 10.5 14C10.883 14 11.2623 13.9246 11.6162 13.778C11.97 13.6314 12.2916 13.4166 12.5624 13.1457C12.8332 12.8749 13.0481 12.5534 13.1946 12.1995C13.3412 11.8456 13.4167 11.4664 13.4167 11.0833C13.4167 10.7003 13.3412 10.321 13.1946 9.96717C13.0481 9.61331 12.8332 9.29178 12.5624 9.02094C12.2916 8.7501 11.97 8.53526 11.6162 8.38868C11.2623 8.24211 10.883 8.16667 10.5 8.16667ZM16.3333 8.16667V9.33333H23.3333V8.16667H16.3333ZM16.3333 10.5V11.6667H23.3333V10.5H16.3333ZM16.3333 12.8333V14H21V12.8333H16.3333Z" fill="black"/>
</g>
<defs>
<clipPath id="clip0_766_914">
<rect width="28" height="28" fill="white"/>
</clipPath>
</defs>
</svg>
