<svg width="30" height="30" viewBox="0 0 30 30" fill="none" xmlns="http://www.w3.org/2000/svg">
<path d="M14.8232 21.7626C15.1157 21.6048 15.298 21.3048 15.298 20.9784V15.8966H25.3321C25.8388 15.8966 26.25 15.4949 26.25 15C26.25 14.5051 25.8388 14.1035 25.3321 14.1035H15.298V9.02164C15.298 8.69409 15.1157 8.39404 14.8232 8.23744C14.5307 8.07844 14.1733 8.0892 13.8906 8.26254L4.17834 14.2409C3.91154 14.4059 3.75 14.6916 3.75 15C3.75 15.3085 3.91154 15.5942 4.17834 15.7591L13.8906 21.7375C14.0399 21.8284 14.21 21.875 14.3801 21.875C14.5319 21.875 14.6849 21.8367 14.8232 21.7626Z" fill="black"/>
</svg>
