<svg width="24" height="24" viewBox="0 0 24 24" fill="none" xmlns="http://www.w3.org/2000/svg">
<g clip-path="url(#clip0_400_64)">
<path d="M20.5 15C18.57 15 17 16.57 17 18.5C17 20.43 18.57 22 20.5 22C22.43 22 24 20.43 24 18.5C24 16.57 22.43 15 20.5 15Z" fill="#1FA3D8"/>
<path d="M23 13C23.553 13 24 12.552 24 12C24 11.448 23.553 11 23 11H20.5C20.232 11 19.966 11.018 19.703 11.049L18.027 6.737C18.316 6.9 18.645 7 19.001 7C19.553 7 20.001 6.552 20.001 6V4C20.001 3.448 19.553 3 19.001 3C18.108 3 17.361 3.589 17.104 4.397C16.465 2.939 15.053 2 13.449 2H13.001C12.448 2 12.001 2.448 12.001 3C12.001 3.552 12.448 4 13.001 4H13.449C14.266 4 15.015 4.513 15.313 5.275L17.76 11.567C16.828 11.966 15.977 12.563 15.276 13.342L13.636 15.289C13.256 15.74 12.696 16 12.106 16H11.877L9.68202 10.514C9.07502 8.995 7.60402 8 5.96802 8H2.99902C1.34202 8 -0.000976562 9.343 -0.000976562 11V15C-0.000976562 16.33 0.870023 17.444 2.06802 17.838C2.02702 18.055 1.99902 18.275 1.99902 18.5C1.99902 20.43 3.56902 22 5.49902 22C7.42902 22 8.99902 20.43 8.99902 18.5C8.99902 18.331 8.98302 18.165 8.95902 18H12.107C13.286 18 14.404 17.48 15.163 16.578L16.782 14.655C17.729 13.603 19.084 13 20.499 13H23Z" fill="#1FA3D8"/>
</g>
<defs>
<clipPath id="clip0_400_64">
<rect width="24" height="24" fill="white"/>
</clipPath>
</defs>
</svg>
