<svg width="39" height="26" viewBox="0 0 39 26" fill="none" xmlns="http://www.w3.org/2000/svg">
<g clip-path="url(#clip0_402_91)">
<path d="M34.6018 17C32.683 17 31.1221 18.57 31.1221 20.5C31.1221 22.43 32.683 24 34.6018 24C36.5206 24 38.0815 22.43 38.0815 20.5C38.0815 18.57 36.5206 17 34.6018 17Z" fill="#1FA3D8"/>
<path d="M37.0874 15C37.6372 15 38.0816 14.552 38.0816 14C38.0816 13.448 37.6372 13 37.0874 13H34.6019C34.3354 13 34.071 13.018 33.8095 13.049L32.1432 8.737C32.4305 8.9 32.7576 9 33.1116 9C33.6604 9 34.1058 8.552 34.1058 8V6C34.1058 5.448 33.6604 5 33.1116 5C32.2237 5 31.4811 5.589 31.2256 6.397C30.5903 4.939 29.1865 4 27.5918 4H27.1464C26.5966 4 26.1522 4.448 26.1522 5C26.1522 5.552 26.5966 6 27.1464 6H27.5918C28.404 6 29.1487 6.513 29.445 7.275L31.8778 13.567C30.9512 13.966 30.1051 14.563 29.4082 15.342L27.7777 17.289C27.3999 17.74 26.8431 18 26.2565 18H26.0289L23.8466 12.514C23.2431 10.995 21.7806 10 20.1541 10H17.2023C15.5549 10 14.2197 11.343 14.2197 13V17C14.2197 18.33 15.0857 19.444 16.2767 19.838C16.236 20.055 16.2081 20.275 16.2081 20.5C16.2081 22.43 17.769 24 19.6878 24C21.6067 24 23.1676 22.43 23.1676 20.5C23.1676 20.331 23.1516 20.165 23.1278 20H26.2575C27.4297 20 28.5412 19.48 29.2958 18.578L30.9054 16.655C31.8469 15.603 33.1941 15 34.6009 15H37.0874Z" fill="#1FA3D8"/>
</g>
<path d="M19.1915 20H5.27265V21C5.27265 21.5523 4.82752 22 4.27844 22H3.28424C2.73516 22 2.29004 21.5523 2.29004 21V12L4.78881 5.29775C5.07984 4.51715 5.82176 4 6.65061 4H17.8135C18.6424 4 19.3843 4.51715 19.6754 5.29775L22.1741 12V21C22.1741 21.5523 21.729 22 21.1799 22H20.1857C19.6366 22 19.1915 21.5523 19.1915 21V20ZM4.41366 12H20.0505L17.8135 6H6.65061L4.41366 12ZM6.76395 17C7.58758 17 8.25526 16.3284 8.25526 15.5C8.25526 14.6716 7.58758 14 6.76395 14C5.94032 14 5.27265 14.6716 5.27265 15.5C5.27265 16.3284 5.94032 17 6.76395 17ZM17.7002 17C18.5238 17 19.1915 16.3284 19.1915 15.5C19.1915 14.6716 18.5238 14 17.7002 14C16.8766 14 16.2089 14.6716 16.2089 15.5C16.2089 16.3284 16.8766 17 17.7002 17Z" fill="#1FA3D8"/>
<defs>
<clipPath id="clip0_402_91">
<rect width="23.8609" height="24" fill="white" transform="translate(14.2207 2)"/>
</clipPath>
</defs>
</svg>
