<svg width="20" height="20" viewBox="0 0 20 20" fill="none" xmlns="http://www.w3.org/2000/svg">
<g clip-path="url(#clip0_427_98)">
<path d="M1.12471 6.62824L0.0605469 4.36574L8.76055 0.277403C9.14805 0.0950437 9.57103 0.000488281 9.9993 0.000488281C10.4276 0.000488281 10.8505 0.0950437 11.238 0.277403L19.9689 4.3649L18.9089 6.62907L10.1772 2.53907C10.122 2.51273 10.0617 2.49905 10.0005 2.49905C9.93941 2.49905 9.87905 2.51273 9.82388 2.53907L1.12471 6.62824ZM18.1305 10.6932C18.8102 12.1065 19.1642 13.6542 19.1664 15.2224V18.3332H17.4997V19.9999H13.333V18.3332H6.66638V19.9999H2.49971V18.3332H0.833047V15.2224C0.835221 13.6542 1.18919 12.1065 1.86888 10.6932L3.41638 7.4824C3.65632 6.98897 4.02995 6.5728 4.49475 6.28124C4.95956 5.98969 5.49687 5.83447 6.04555 5.83324H13.9539C14.5026 5.83447 15.0399 5.98969 15.5047 6.28124C15.9695 6.5728 16.3431 6.98897 16.583 7.4824L18.1305 10.6932ZM4.58305 13.3332C4.25153 13.3332 3.93358 13.4649 3.69916 13.6994C3.46474 13.9338 3.33305 14.2517 3.33305 14.5832C3.33305 14.9148 3.46474 15.2327 3.69916 15.4671C3.93358 15.7015 4.25153 15.8332 4.58305 15.8332C4.91457 15.8332 5.23251 15.7015 5.46693 15.4671C5.70135 15.2327 5.83305 14.9148 5.83305 14.5832C5.83305 14.2517 5.70135 13.9338 5.46693 13.6994C5.23251 13.4649 4.91457 13.3332 4.58305 13.3332ZM15.4222 10.8332L14.333 8.56907C14.299 8.49848 14.2458 8.4389 14.1795 8.39719C14.1132 8.35547 14.0364 8.33331 13.958 8.33324H6.04555C5.96719 8.33331 5.89044 8.35547 5.82411 8.39719C5.75778 8.4389 5.70455 8.49848 5.67055 8.56907L4.57721 10.8332H15.4222ZM15.4164 13.3332C15.0849 13.3332 14.7669 13.4649 14.5325 13.6994C14.2981 13.9338 14.1664 14.2517 14.1664 14.5832C14.1664 14.9148 14.2981 15.2327 14.5325 15.4671C14.7669 15.7015 15.0849 15.8332 15.4164 15.8332C15.7479 15.8332 16.0658 15.7015 16.3003 15.4671C16.5347 15.2327 16.6664 14.9148 16.6664 14.5832C16.6664 14.2517 16.5347 13.9338 16.3003 13.6994C16.0658 13.4649 15.7479 13.3332 15.4164 13.3332Z" fill="#1FA3D8"/>
</g>
<defs>
<clipPath id="clip0_427_98">
<rect width="20" height="20" fill="white"/>
</clipPath>
</defs>
</svg>
