<svg width="26" height="26" viewBox="0 0 26 26" fill="none" xmlns="http://www.w3.org/2000/svg">
<path d="M21.1758 1.6377H22.75V26H3.25V1.6377H4.84961V0H6.47461V1.6377H9.75V0H11.375V1.6377H14.6504V0H16.2754V1.6377H19.5508V0H21.1758V1.6377ZM21.125 24.375V3.2627H4.875V24.375H21.125ZM17.875 6.5127V8.1377H11.375V6.5127H17.875ZM11.375 21.1504V19.5254H17.875V21.1504H11.375ZM11.375 14.6377V13.0127H17.875V14.6377H11.375Z" fill="black"/>
<path d="M7.71875 8.125V6.5H9.75V8.125H7.71875Z" fill="black"/>
<path d="M7.71875 8.125V6.5H9.75V8.125H7.71875Z" stroke="black"/>
<path d="M7.71875 8.125V6.5H9.75V8.125H7.71875Z" stroke="black"/>
<path d="M7.71875 8.125V6.5H9.75V8.125H7.71875Z" stroke="black"/>
<path d="M7.71875 8.125V6.5H9.75V8.125H7.71875Z" stroke="black"/>
<path d="M7.71875 14.625V13H9.75V14.625H7.71875Z" fill="black"/>
<path d="M7.71875 14.625V13H9.75V14.625H7.71875Z" stroke="black"/>
<path d="M7.71875 14.625V13H9.75V14.625H7.71875Z" stroke="black"/>
<path d="M7.71875 14.625V13H9.75V14.625H7.71875Z" stroke="black"/>
<path d="M7.71875 14.625V13H9.75V14.625H7.71875Z" stroke="black"/>
<path d="M7.71875 21.125V19.5H9.75V21.125H7.71875Z" fill="black"/>
<path d="M7.71875 21.125V19.5H9.75V21.125H7.71875Z" stroke="black"/>
<path d="M7.71875 21.125V19.5H9.75V21.125H7.71875Z" stroke="black"/>
<path d="M7.71875 21.125V19.5H9.75V21.125H7.71875Z" stroke="black"/>
<path d="M7.71875 21.125V19.5H9.75V21.125H7.71875Z" stroke="black"/>
</svg>
