<svg width="14" height="14" viewBox="0 0 14 14" fill="none" xmlns="http://www.w3.org/2000/svg">
<path d="M12.0215 5.35693C12.0215 5.35693 11.6372 9.72576 11.4143 11.566C11.3082 12.445 10.7159 12.9601 9.74574 12.9763C7.89953 13.0068 6.0512 13.0087 4.2057 12.973C3.27233 12.9555 2.68995 12.434 2.58593 11.5706C2.36161 9.71408 1.97949 5.35693 1.97949 5.35693" stroke="#1FA3D8" stroke-width="1.5" stroke-linecap="round" stroke-linejoin="round"/>
<path d="M13 3.26416H1" stroke="#1FA3D8" stroke-width="1.5" stroke-linecap="round" stroke-linejoin="round"/>
<path d="M10.6881 3.26323C10.1326 3.26323 9.65429 2.90321 9.54531 2.40438L9.37336 1.61559C9.26721 1.25169 8.90774 1 8.49802 1H5.50262C5.0929 1 4.73342 1.25169 4.62728 1.61559L4.45532 2.40438C4.34635 2.90321 3.86799 3.26323 3.3125 3.26323" stroke="#1FA3D8" stroke-width="1.5" stroke-linecap="round" stroke-linejoin="round"/>
</svg>
