<svg width="14" height="14" viewBox="0 0 14 14" fill="none" xmlns="http://www.w3.org/2000/svg">
<path d="M6.56864 1.02466H4.18691C2.22813 1.02466 1 2.40903 1 4.3689V9.65585C1 11.6157 2.2224 13.0001 4.18691 13.0001H9.80778C11.7729 13.0001 12.9953 11.6157 12.9953 9.65585V7.09441" stroke="#1FA3D8" stroke-width="1.5" stroke-linecap="round" stroke-linejoin="round"/>
<path fill-rule="evenodd" clip-rule="evenodd" d="M4.87258 6.19569L9.63287 1.44355C10.2259 0.852151 11.1871 0.852151 11.7802 1.44355L12.5554 2.21745C13.1485 2.80948 13.1485 3.7697 12.5554 4.3611L7.77219 9.13613C7.51294 9.39495 7.16131 9.54057 6.7944 9.54057H4.4082L4.46808 7.13684C4.477 6.78327 4.6216 6.44624 4.87258 6.19569Z" stroke="#1FA3D8" stroke-width="1.5" stroke-linecap="round" stroke-linejoin="round"/>
<path d="M8.9082 2.17773L11.8167 5.08129" stroke="#1FA3D8" stroke-width="1.5" stroke-linecap="round" stroke-linejoin="round"/>
</svg>
