<svg width="30" height="30" viewBox="0 0 30 30" fill="none" xmlns="http://www.w3.org/2000/svg">
<path d="M26.1919 4.45312L2.95781 8.4375H14.0625L24.6684 6.62062L24.9891 8.4375H26.8941L26.1919 4.45312ZM1.875 9.375V24.375H28.125V9.375H1.875ZM6.50437 11.25H23.4966C23.4607 11.4038 23.4409 11.5609 23.4375 11.7188C23.4375 12.3404 23.6844 12.9365 24.124 13.376C24.5635 13.8156 25.1596 14.0625 25.7812 14.0625C25.9434 14.0625 26.0972 14.0344 26.25 14.0034V19.7466C26.0962 19.7107 25.9391 19.6909 25.7812 19.6875C25.1596 19.6875 24.5635 19.9344 24.124 20.374C23.6844 20.8135 23.4375 21.4096 23.4375 22.0312C23.4375 22.1934 23.4656 22.3472 23.4966 22.5H6.50437C6.53531 22.3472 6.5625 22.1934 6.5625 22.0312C6.5625 21.7235 6.50188 21.4187 6.38409 21.1343C6.26631 20.85 6.09367 20.5916 5.87603 20.374C5.65839 20.1563 5.40002 19.9837 5.11566 19.8659C4.83131 19.7481 4.52654 19.6875 4.21875 19.6875C4.05656 19.6875 3.90281 19.7156 3.75 19.7466V14.0044C3.90281 14.0353 4.05656 14.0625 4.21875 14.0625C4.52654 14.0625 4.83131 14.0019 5.11566 13.8841C5.40002 13.7663 5.65839 13.5937 5.87603 13.376C6.09367 13.1584 6.26631 12.9 6.38409 12.6157C6.50188 12.3313 6.5625 12.0265 6.5625 11.7188C6.5625 11.5566 6.53437 11.4028 6.50344 11.25H6.50437ZM15 12.1875C12.4219 12.1875 10.3125 14.2969 10.3125 16.875C10.3125 19.4531 12.4219 21.5625 15 21.5625C17.5781 21.5625 19.6875 19.4531 19.6875 16.875C19.6875 14.2969 17.5781 12.1875 15 12.1875ZM15 14.0625C16.5656 14.0625 17.8125 15.3094 17.8125 16.875C17.8125 18.4406 16.5656 19.6875 15 19.6875C13.4344 19.6875 12.1875 18.4406 12.1875 16.875C12.1875 15.3094 13.4344 14.0625 15 14.0625Z" fill="black"/>
</svg>
