<svg width="6" height="6" viewBox="0 0 6 6" fill="none" xmlns="http://www.w3.org/2000/svg">
<g clip-path="url(#clip0_489_490)">
<path d="M5.25 1.75C5.25 1.8875 5.1375 2 5 2H4.2425C4.1775 2.975 3.365 3.75 2.375 3.75H1.7L3.9075 5.5575C4.015 5.645 4.03 5.8025 3.9425 5.91C3.8925 5.97 3.82 6.0025 3.7475 6.0025C3.6925 6.0025 3.635 5.985 3.59 5.945L0.8425 3.6925C0.76 3.625 0.73 3.515 0.765 3.415C0.8 3.315 0.895 3.25 1 3.25H2.375C3.09 3.25 3.68 2.7 3.7425 2H1C0.8625 2 0.75 1.8875 0.75 1.75C0.75 1.6125 0.8625 1.5 1 1.5H3.6975C3.5325 0.925 3.005 0.5 2.375 0.5H1C0.8625 0.5 0.75 0.3875 0.75 0.25C0.75 0.1125 0.8625 0 1 0H5C5.1375 0 5.25 0.1125 5.25 0.25C5.25 0.3875 5.1375 0.5 5 0.5H3.6475C3.93 0.7625 4.13 1.11 4.21 1.5H4.9975C5.135 1.5 5.2475 1.6125 5.2475 1.75H5.25Z" fill="#1FA3D8"/>
</g>
<defs>
<clipPath id="clip0_489_490">
<rect width="6" height="6" fill="white"/>
</clipPath>
</defs>
</svg>
