<svg width="15" height="15" viewBox="0 0 15 15" fill="none" xmlns="http://www.w3.org/2000/svg">
<g clip-path="url(#clip0_427_199)">
<path d="M8.43739 7.50013C8.43739 8.01763 8.01739 8.43763 7.49989 8.43763C6.98239 8.43763 6.56239 8.01763 6.56239 7.50013C6.56239 6.98263 6.98239 6.56263 7.49989 6.56263C8.01739 6.56263 8.43739 6.98263 8.43739 7.50013ZM10.6249 6.56263C10.1074 6.56263 9.68739 6.98263 9.68739 7.50013C9.68739 8.01763 10.1074 8.43763 10.6249 8.43763C11.1424 8.43763 11.5624 8.01763 11.5624 7.50013C11.5624 6.98263 11.1424 6.56263 10.6249 6.56263ZM4.37489 6.56263C3.85739 6.56263 3.43739 6.98263 3.43739 7.50013C3.43739 8.01763 3.85739 8.43763 4.37489 8.43763C4.89239 8.43763 5.31239 8.01763 5.31239 7.50013C5.31239 6.98263 4.89239 6.56263 4.37489 6.56263ZM14.9999 7.71263V11.8751C14.9999 13.5983 13.598 15.0001 11.8749 15.0001H8.17676C3.80114 15.0001 0.293635 12.0051 0.0186351 8.03388C-0.13199 5.86138 0.66051 3.73513 2.19301 2.20075C3.72551 0.666376 5.85176 -0.128624 8.02239 0.0182514C11.9349 0.283876 14.9999 3.66325 14.9999 7.71263ZM13.7499 7.71263C13.7499 4.31825 11.1974 1.48638 7.93801 1.26513C7.79489 1.25513 7.65176 1.25075 7.50926 1.25075C5.84926 1.25075 4.25363 1.90575 3.07738 3.08388C1.79989 4.36263 1.13926 6.13575 1.26551 7.94763C1.49864 11.3101 4.40551 13.7508 8.17739 13.7508H11.8755C12.9093 13.7508 13.7505 12.9095 13.7505 11.8758V7.71325L13.7499 7.71263Z" fill="#1FA3D8"/>
</g>
<defs>
<clipPath id="clip0_427_199">
<rect width="15" height="15" fill="white"/>
</clipPath>
</defs>
</svg>
