<svg width="64" height="64" viewBox="0 0 64 64" fill="none" xmlns="http://www.w3.org/2000/svg">
<g clip-path="url(#clip0_523_2)">
<path d="M31.9998 45.3333C33.4143 45.3333 34.7709 45.8952 35.7711 46.8954C36.7713 47.8956 37.3332 49.2522 37.3332 50.6667C37.3332 52.0812 36.7713 53.4377 35.7711 54.4379C34.7709 55.4381 33.4143 56 31.9998 56C30.5853 56 29.2288 55.4381 28.2286 54.4379C27.2284 53.4377 26.6665 52.0812 26.6665 50.6667C26.6665 49.2522 27.2284 47.8956 28.2286 46.8954C29.2288 45.8952 30.5853 45.3333 31.9998 45.3333ZM31.9998 26.6667C33.4143 26.6667 34.7709 27.2286 35.7711 28.2288C36.7713 29.229 37.3332 30.5855 37.3332 32C37.3332 33.4145 36.7713 34.771 35.7711 35.7712C34.7709 36.7714 33.4143 37.3333 31.9998 37.3333C30.5853 37.3333 29.2288 36.7714 28.2286 35.7712C27.2284 34.771 26.6665 33.4145 26.6665 32C26.6665 30.5855 27.2284 29.229 28.2286 28.2288C29.2288 27.2286 30.5853 26.6667 31.9998 26.6667ZM31.9998 8C33.4143 8 34.7709 8.5619 35.7711 9.5621C36.7713 10.5623 37.3332 11.9188 37.3332 13.3333C37.3332 14.7478 36.7713 16.1044 35.7711 17.1046C34.7709 18.1048 33.4143 18.6667 31.9998 18.6667C30.5853 18.6667 29.2288 18.1048 28.2286 17.1046C27.2284 16.1044 26.6665 14.7478 26.6665 13.3333C26.6665 11.9188 27.2284 10.5623 28.2286 9.5621C29.2288 8.5619 30.5853 8 31.9998 8Z" fill="#333333"/>
</g>
<defs>
<clipPath id="clip0_523_2">
<rect width="64" height="64" fill="white"/>
</clipPath>
</defs>
</svg>
