<svg width="14" height="14" viewBox="0 0 14 14" fill="none" xmlns="http://www.w3.org/2000/svg">
<g clip-path="url(#clip0_423_81)">
<path d="M11.0837 4.914V4.08333C11.0837 3.00037 10.6535 1.96175 9.88768 1.19598C9.1219 0.430207 8.08329 0 7.00033 0C5.91736 0 4.87875 0.430207 4.11297 1.19598C3.3472 1.96175 2.91699 3.00037 2.91699 4.08333V4.914C2.39745 5.14074 1.95525 5.51397 1.64445 5.98804C1.33365 6.46211 1.16774 7.01647 1.16699 7.58333V11.0833C1.16792 11.8566 1.47551 12.5979 2.02229 13.1447C2.56907 13.6915 3.3104 13.9991 4.08366 14H9.91699C10.6903 13.9991 11.4316 13.6915 11.9784 13.1447C12.5251 12.5979 12.8327 11.8566 12.8337 11.0833V7.58333C12.8329 7.01647 12.667 6.46211 12.3562 5.98804C12.0454 5.51397 11.6032 5.14074 11.0837 4.914ZM4.08366 4.08333C4.08366 3.30979 4.39095 2.56792 4.93793 2.02094C5.48491 1.47396 6.22678 1.16667 7.00033 1.16667C7.77387 1.16667 8.51574 1.47396 9.06272 2.02094C9.6097 2.56792 9.91699 3.30979 9.91699 4.08333V4.66667H4.08366V4.08333ZM11.667 11.0833C11.667 11.5475 11.4826 11.9926 11.1544 12.3208C10.8262 12.649 10.3811 12.8333 9.91699 12.8333H4.08366C3.61953 12.8333 3.17441 12.649 2.84622 12.3208C2.51803 11.9926 2.33366 11.5475 2.33366 11.0833V7.58333C2.33366 7.1192 2.51803 6.67408 2.84622 6.3459C3.17441 6.01771 3.61953 5.83333 4.08366 5.83333H9.91699C10.3811 5.83333 10.8262 6.01771 11.1544 6.3459C11.4826 6.67408 11.667 7.1192 11.667 7.58333V11.0833Z" fill="#1FA3D8"/>
<path d="M7.00033 8.16675C6.84562 8.16675 6.69724 8.22821 6.58785 8.3376C6.47845 8.447 6.41699 8.59537 6.41699 8.75008V9.91675C6.41699 10.0715 6.47845 10.2198 6.58785 10.3292C6.69724 10.4386 6.84562 10.5001 7.00033 10.5001C7.15504 10.5001 7.30341 10.4386 7.4128 10.3292C7.5222 10.2198 7.58366 10.0715 7.58366 9.91675V8.75008C7.58366 8.59537 7.5222 8.447 7.4128 8.3376C7.30341 8.22821 7.15504 8.16675 7.00033 8.16675Z" fill="#1FA3D8"/>
</g>
<defs>
<clipPath id="clip0_423_81">
<rect width="14" height="14" fill="white"/>
</clipPath>
</defs>
</svg>
