<svg width="14" height="14" viewBox="0 0 14 14" fill="none" xmlns="http://www.w3.org/2000/svg">
<path d="M10.3547 6.532C10.3547 5.74933 10.0438 4.99871 9.49037 4.44527C8.93694 3.89184 8.18632 3.58092 7.40364 3.58092M12.3777 6.3255C12.3777 5.70542 12.2556 5.09141 12.0183 4.51853C11.781 3.94565 11.4331 3.42513 10.9946 2.98669C10.5561 2.54825 10.0356 2.20048 9.46266 1.96324C8.88975 1.726 8.27573 1.60393 7.65564 1.604M7.30972 11.7931C7.13472 11.7132 6.96031 11.6333 6.78589 11.5382C5.93018 11.055 5.14422 10.4577 4.44964 9.7625C3.54907 8.91495 2.80934 7.91138 2.26622 6.80034C1.97531 6.20373 1.77891 5.56553 1.68406 4.90859C1.55496 4.24487 1.62854 3.55767 1.89522 2.93634C2.05943 2.66931 2.25746 2.42461 2.48439 2.20834C2.57653 2.1052 2.68857 2.02175 2.81377 1.96301C2.93897 1.90427 3.07476 1.87144 3.21297 1.8665C3.50056 1.90967 3.76131 2.06017 3.94097 2.28825C4.33414 2.72517 4.75589 3.11834 5.17064 3.53309C5.33397 3.67309 5.43606 3.87142 5.45472 4.08609C5.44772 4.26692 5.37831 4.439 5.25814 4.57375C5.11989 4.74875 4.95247 4.90859 4.79264 5.07542C4.69588 5.16843 4.62187 5.2825 4.57634 5.40875C4.53082 5.53501 4.51501 5.67006 4.53014 5.80342C4.63047 6.1155 4.80256 6.40017 5.03239 6.6335C5.3082 7.00967 5.59713 7.37603 5.89864 7.73192C6.46071 8.38116 7.12706 8.93219 7.87031 9.36234C7.97318 9.44002 8.0948 9.48905 8.22279 9.50442C8.35078 9.51979 8.48055 9.50096 8.59889 9.44984C8.84564 9.31159 9.06556 9.129 9.24639 8.91142C9.40287 8.7206 9.62723 8.59787 9.87231 8.569C10.0905 8.58067 10.2958 8.674 10.4475 8.8315C10.6435 8.99834 10.8109 9.19492 10.9929 9.37692C11.1749 9.55892 11.3207 9.69017 11.4736 9.857C11.6563 10.0183 11.8287 10.1909 11.9898 10.3738C12.1146 10.5354 12.1747 10.7384 12.1572 10.9414C12.0924 11.1846 11.9523 11.401 11.7571 11.5598C11.4824 11.8456 11.1486 12.068 10.779 12.2113C10.4094 12.3547 10.013 12.4156 9.61739 12.3898C8.81655 12.3449 8.03191 12.1421 7.30972 11.7931Z" stroke="#1FA3D8" stroke-width="0.875" stroke-miterlimit="10" stroke-linecap="round"/>
</svg>
