<svg width="20" height="20" viewBox="0 0 20 20" fill="none" xmlns="http://www.w3.org/2000/svg">
<path d="M7.34933 12.656C11.3347 12.656 14.6987 13.3321 14.6987 15.9462C14.6987 18.5583 11.3131 19.2118 7.34933 19.2118L7.0786 19.2108C3.21283 19.1801 0 18.4764 0 15.9217C0 13.3096 3.38553 12.656 7.34933 12.656ZM13.5697 11.0822C15.0854 11.0516 16.7155 11.2694 17.3173 11.4228C18.5932 11.6836 19.4318 12.2144 19.7791 12.9886C20.0736 13.6227 20.0736 14.3591 19.7791 14.9932C19.2478 16.1919 17.5335 16.5774 16.8672 16.6766C16.7292 16.6971 16.6186 16.5744 16.6333 16.4291C16.9738 13.1073 14.2664 11.5322 13.5658 11.1702C13.5364 11.1528 13.5296 11.1283 13.5325 11.1119C13.5345 11.1017 13.5472 11.0853 13.5697 11.0822ZM7.34933 0C10.049 0 12.2124 2.26129 12.2124 5.08303C12.2124 7.90478 10.049 10.1661 7.34933 10.1661C4.6507 10.1661 2.48631 7.90478 2.48631 5.08303C2.48631 2.26129 4.6507 0 7.34933 0ZM13.8339 0.848979C16.4415 0.848979 18.4885 3.41197 17.7908 6.26645C17.3202 8.19023 15.6167 9.46764 13.7184 9.41548C13.5276 9.41139 13.3407 9.39195 13.1587 9.36025C13.0276 9.3357 12.9611 9.18127 13.0364 9.06672C13.7605 7.95295 14.1734 6.61214 14.1734 5.17518C14.1734 3.6738 13.7233 2.27571 12.9396 1.12717C12.9141 1.09137 12.8955 1.03716 12.921 0.995231C12.9405 0.962504 12.9797 0.944094 13.0159 0.935912C13.2801 0.879661 13.5511 0.848979 13.8339 0.848979Z" fill="#1FA3D8"/>
</svg>
