<svg width="6" height="6" viewBox="0 0 6 6" fill="none" xmlns="http://www.w3.org/2000/svg">
<g clip-path="url(#clip0_489_494)">
<path d="M5.9588 2.19885C5.90767 2.03608 5.8055 1.89408 5.66742 1.79386C5.52933 1.69364 5.36266 1.64052 5.19205 1.64235H4.0998L3.76805 0.608355C3.71588 0.445594 3.61337 0.303608 3.4753 0.202871C3.33722 0.102134 3.17072 0.0478516 2.9998 0.0478516C2.82889 0.0478516 2.66239 0.102134 2.52431 0.202871C2.38624 0.303608 2.28372 0.445594 2.23155 0.608355L1.8998 1.64235H0.807554C0.63749 1.6426 0.471852 1.69658 0.334299 1.79658C0.196746 1.89659 0.0943143 2.0375 0.0416344 2.1992C-0.0110454 2.3609 -0.0112786 2.53511 0.0409682 2.69695C0.093215 2.85879 0.195269 2.99998 0.332554 3.10036L1.22155 3.75036L0.883554 4.79711C0.828932 4.95945 0.82824 5.13511 0.881581 5.29788C0.934923 5.46065 1.03944 5.60182 1.17955 5.70036C1.31727 5.80205 1.48415 5.85653 1.65534 5.85567C1.82653 5.85482 1.99286 5.79867 2.12955 5.69561L2.9998 5.05511L3.8703 5.69486C4.00777 5.79597 4.17375 5.85089 4.3444 5.85172C4.51504 5.85255 4.68155 5.79925 4.82 5.69948C4.95844 5.59971 5.06168 5.45862 5.11488 5.29647C5.16807 5.13433 5.16849 4.9595 5.11605 4.79711L4.77805 3.75036L5.66805 3.10036C5.80691 3.00124 5.91016 2.86005 5.96252 2.69769C6.01489 2.53533 6.01359 2.36042 5.9588 2.19885ZM5.37305 2.6966L4.33705 3.45386C4.2945 3.4849 4.26284 3.52859 4.24659 3.57869C4.23034 3.62879 4.23032 3.68275 4.24655 3.73286L4.6403 4.95036C4.66023 5.01211 4.66006 5.07859 4.63982 5.14023C4.61958 5.20188 4.58031 5.25552 4.52766 5.29345C4.47501 5.33137 4.41169 5.35163 4.34681 5.35129C4.28192 5.35096 4.21881 5.33007 4.16655 5.29161L3.1478 4.54161C3.1049 4.51009 3.05304 4.49309 2.9998 4.49309C2.94656 4.49309 2.89471 4.51009 2.8518 4.54161L1.83305 5.29161C1.78082 5.33058 1.71754 5.35192 1.65237 5.35251C1.5872 5.3531 1.52354 5.33292 1.47061 5.29489C1.41768 5.25687 1.37824 5.20298 1.358 5.14103C1.33777 5.07908 1.33778 5.01229 1.35805 4.95036L1.75305 3.73286C1.76928 3.68275 1.76927 3.62879 1.75302 3.57869C1.73677 3.52859 1.70511 3.4849 1.66255 3.45386L0.626554 2.6966C0.57438 2.6584 0.535613 2.60469 0.515789 2.54314C0.495966 2.48159 0.496101 2.41535 0.516175 2.35388C0.536249 2.29241 0.575235 2.23886 0.627564 2.20087C0.679894 2.16288 0.74289 2.1424 0.807554 2.14235H2.08255C2.13548 2.14235 2.18705 2.12555 2.22982 2.09437C2.27259 2.06319 2.30436 2.01925 2.32055 1.96886L2.70805 0.761105C2.72794 0.699301 2.76693 0.645403 2.8194 0.607167C2.87188 0.568932 2.93513 0.548331 3.00005 0.548331C3.06498 0.548331 3.12823 0.568932 3.1807 0.607167C3.23318 0.645403 3.27216 0.699301 3.29205 0.761105L3.67955 1.96886C3.69575 2.01925 3.72752 2.06319 3.77029 2.09437C3.81306 2.12555 3.86462 2.14235 3.91755 2.14235H5.19255C5.25722 2.1424 5.32021 2.16288 5.37254 2.20087C5.42487 2.23886 5.46386 2.29241 5.48393 2.35388C5.50401 2.41535 5.50414 2.48159 5.48432 2.54314C5.4645 2.60469 5.42573 2.6584 5.37355 2.6966H5.37305Z" fill="#1FA3D8"/>
</g>
<defs>
<clipPath id="clip0_489_494">
<rect width="6" height="6" fill="white"/>
</clipPath>
</defs>
</svg>
