<svg width="28" height="28" viewBox="0 0 28 28" fill="none" xmlns="http://www.w3.org/2000/svg">
<path d="M14.5837 24.5H7.00033C6.38149 24.5 5.78799 24.2542 5.35041 23.8166C4.91282 23.379 4.66699 22.7855 4.66699 22.1667V8.16667C4.66699 7.54783 4.91282 6.95434 5.35041 6.51675C5.78799 6.07917 6.38149 5.83333 7.00033 5.83333H21.0003C21.6192 5.83333 22.2127 6.07917 22.6502 6.51675C23.0878 6.95434 23.3337 7.54783 23.3337 8.16667V14M18.667 3.5V8.16667M9.33366 3.5V8.16667M4.66699 12.8333H23.3337" stroke="black" stroke-width="2.33" stroke-linecap="round" stroke-linejoin="round"/>
<g clip-path="url(#clip0_766_896)">
<path d="M21.542 16.9063C21.5202 16.9065 21.4985 16.9068 21.4767 16.9074C20.7087 16.9277 19.8847 17.2193 19.059 17.8918L18.9412 17.9877L18.8293 17.8852C18.5823 17.6591 18.4333 17.3455 18.3283 17.0314C18.153 17.7536 18.0425 18.6209 18.1479 19.2682C18.5008 19.2859 19.0348 19.2256 19.5874 19.1155C19.9362 19.0459 20.2915 18.9567 20.6238 18.8601C20.3617 18.8033 20.118 18.7257 19.8788 18.6242L19.5646 18.4907L19.8557 18.3125C20.7613 17.7579 21.4371 17.5178 22.2041 17.6181C22.8507 17.7026 23.5587 18.0256 24.5296 18.5413C24.034 17.8321 23.3139 17.2769 22.4841 17.0376C22.1833 16.9508 21.8679 16.9042 21.542 16.9063ZM23.2578 18.7653C22.3463 18.7653 22.3464 18.7653 22.3464 19.6767V23.3239C22.3464 23.5113 22.3465 23.6596 22.3545 23.7778C22.681 23.6853 23.011 23.6057 23.3438 23.5391C23.8253 23.4431 24.2885 23.3784 24.6703 23.3748C24.7976 23.3736 24.9158 23.3792 25.0227 23.3926L25.1459 23.4081L25.1724 23.5295C25.2206 23.7495 25.2442 23.9874 25.2489 24.2337C25.9917 24.23 25.9922 24.174 25.9922 23.3226V19.6767C25.9922 18.7653 25.9922 18.7653 25.0807 18.7653C25.1076 18.8145 25.1335 18.8643 25.1584 18.9145L25.405 19.4132L24.9166 19.1467C24.6611 19.0072 24.4252 18.8804 24.2047 18.7653H23.2578ZM17.7511 18.7656C17.0083 18.7693 17.0078 18.8253 17.0078 19.6767V23.3239C17.0078 24.234 17.0078 24.234 17.9193 24.234C17.8924 24.1848 17.8665 24.135 17.8416 24.0848L17.595 23.586L18.0834 23.8526C18.3389 23.9921 18.5748 24.1189 18.7953 24.234H19.7422C20.6537 24.234 20.6536 24.234 20.6536 23.3226V19.6767C20.6536 19.4887 20.6535 19.34 20.6455 19.2216C20.319 19.314 19.9889 19.3936 19.6562 19.4602C19.0143 19.5882 18.4047 19.6604 17.9773 19.6067L17.8541 19.5912L17.8276 19.4698C17.7794 19.2498 17.7558 19.0119 17.7511 18.7656ZM24.6773 23.728C24.3346 23.7329 23.8799 23.7907 23.4126 23.8838C23.0638 23.9534 22.7085 24.0425 22.3762 24.1392C22.6383 24.196 22.882 24.2735 23.1212 24.3751L23.4354 24.5086L23.1443 24.6868C22.2387 25.2414 21.5629 25.4815 20.7959 25.3812C20.1493 25.2967 19.4413 24.9736 18.4704 24.4579C18.966 25.1672 19.6861 25.7224 20.5159 25.9617C21.5427 26.2579 22.7399 26.0856 23.941 25.1074L24.0588 25.0115L24.1707 25.1141C24.4177 25.3402 24.5667 25.6538 24.6717 25.9679C24.847 25.2456 24.9575 24.3784 24.8521 23.7311C24.7976 23.7284 24.7398 23.7271 24.6772 23.728H24.6773Z" fill="black"/>
</g>
<defs>
<clipPath id="clip0_766_896">
<rect width="10" height="10" fill="white" transform="translate(16.5 16.5)"/>
</clipPath>
</defs>
</svg>
