<svg width="6" height="6" viewBox="0 0 6 6" fill="none" xmlns="http://www.w3.org/2000/svg">
<g clip-path="url(#clip0_489_498)">
<path d="M4.25 2.50975C3.28525 2.50975 2.5 3.29475 2.5 4.25975C2.5 5.21925 3.28525 6 4.25 6C5.21475 6 6 5.215 6 4.25C6 3.2905 5.21475 2.50975 4.25 2.50975ZM4.25 5.5C3.56075 5.5 3 4.9435 3 4.25975C3 3.5705 3.56075 3.00975 4.25 3.00975C4.93925 3.00975 5.5 3.56625 5.5 4.25C5.5 4.93925 4.93925 5.5 4.25 5.5ZM4.67675 4.32325C4.7745 4.421 4.7745 4.579 4.67675 4.67675C4.628 4.7255 4.564 4.75 4.5 4.75C4.436 4.75 4.372 4.7255 4.32325 4.67675L4.07325 4.42675C4.02625 4.37975 4 4.31625 4 4.25V3.75C4 3.612 4.11175 3.5 4.25 3.5C4.38825 3.5 4.5 3.612 4.5 3.75V4.1465L4.67675 4.32325ZM6 1.75V2.25C6 2.388 5.88825 2.5 5.75 2.5C5.61175 2.5 5.5 2.388 5.5 2.25V1.75C5.5 1.3365 5.1635 1 4.75 1H1.25C0.8365 1 0.5 1.3365 0.5 1.75V2H2.75C2.888 2 3 2.112 3 2.25C3 2.388 2.888 2.5 2.75 2.5H0.5V4.75C0.5 5.1635 0.8365 5.5 1.25 5.5H2.25C2.388 5.5 2.5 5.612 2.5 5.75C2.5 5.888 2.388 6 2.25 6H1.25C0.56075 6 0 5.43925 0 4.75V1.75C0 1.06075 0.56075 0.5 1.25 0.5H1.5V0.25C1.5 0.112 1.612 0 1.75 0C1.888 0 2 0.112 2 0.25V0.5H4V0.25C4 0.112 4.11175 0 4.25 0C4.38825 0 4.5 0.112 4.5 0.25V0.5H4.75C5.43925 0.5 6 1.06075 6 1.75Z" fill="#1FA3D8"/>
</g>
<defs>
<clipPath id="clip0_489_498">
<rect width="6" height="6" fill="white"/>
</clipPath>
</defs>
</svg>
