<svg width="20" height="20" viewBox="0 0 20 20" fill="none" xmlns="http://www.w3.org/2000/svg">
<g clip-path="url(#clip0_427_78)">
<path d="M3.61917 9.1666H0C0.00132321 8.06194 0.440735 7.0029 1.22185 6.22179C2.00296 5.44067 3.062 5.00126 4.16667 4.99994H9.16667V1.36327C9.16682 1.13388 9.22481 0.908228 9.33529 0.707191C9.44576 0.506154 9.60514 0.336221 9.7987 0.213109C9.99226 0.0899978 10.2137 0.0176831 10.4426 0.00285381C10.6716 -0.0119755 10.9005 0.0311593 11.1083 0.128269L13.775 1.37827C13.8956 1.453 13.9951 1.55729 14.0641 1.68125C14.1331 1.80521 14.1693 1.94473 14.1693 2.0866C14.1693 2.22848 14.1331 2.368 14.0641 2.49196C13.9951 2.61591 13.8956 2.7202 13.775 2.79494L10.8333 4.1666V4.99994H15.8333C16.938 5.00126 17.997 5.44067 18.7782 6.22179C19.5593 7.0029 19.9987 8.06194 20 9.1666H16.3808C15.7298 9.16677 15.1043 8.91294 14.6375 8.4591L12.3575 5.9766C11.7203 5.36203 10.8681 5.02069 9.98283 5.02536C9.09753 5.03003 8.24906 5.38034 7.61833 6.0016L5.38667 8.4341C4.91706 8.90167 4.28184 9.16492 3.61917 9.1666ZM10 15.8333C9.77899 15.8333 9.56702 15.9211 9.41074 16.0773C9.25446 16.2336 9.16667 16.4456 9.16667 16.6666V19.9999H10.8333V16.6666C10.8333 16.4456 10.7455 16.2336 10.5893 16.0773C10.433 15.9211 10.221 15.8333 10 15.8333ZM16.3808 10.8333H20V17.4999C20 18.163 19.7366 18.7989 19.2678 19.2677C18.7989 19.7365 18.163 19.9999 17.5 19.9999H12.5V16.6666C12.5 16.0036 12.2366 15.3677 11.7678 14.8988C11.2989 14.43 10.663 14.1666 10 14.1666C9.33696 14.1666 8.70107 14.43 8.23223 14.8988C7.76339 15.3677 7.5 16.0036 7.5 16.6666V19.9999H2.5C1.83696 19.9999 1.20107 19.7365 0.732233 19.2677C0.263392 18.7989 0 18.163 0 17.4999L0 10.8333H3.61917C4.1723 10.8335 4.71992 10.7234 5.23002 10.5095C5.74012 10.2956 6.20245 9.98211 6.59 9.58744L8.82167 7.15494C9.13679 6.85928 9.55139 6.69267 9.98346 6.68804C10.4155 6.68341 10.8336 6.8411 11.155 7.12994L13.4367 9.61244C13.8224 10.0004 14.2812 10.308 14.7866 10.5175C15.2919 10.7271 15.8338 10.8344 16.3808 10.8333ZM5 17.4999C5 17.2789 4.9122 17.067 4.75592 16.9107C4.59964 16.7544 4.38768 16.6666 4.16667 16.6666H3.33333C3.11232 16.6666 2.90036 16.7544 2.74408 16.9107C2.5878 17.067 2.5 17.2789 2.5 17.4999C2.5 17.7209 2.5878 17.9329 2.74408 18.0892C2.90036 18.2455 3.11232 18.3333 3.33333 18.3333H4.16667C4.38768 18.3333 4.59964 18.2455 4.75592 18.0892C4.9122 17.9329 5 17.7209 5 17.4999ZM5 14.1666C5 13.9456 4.9122 13.7336 4.75592 13.5773C4.59964 13.4211 4.38768 13.3333 4.16667 13.3333H3.33333C3.11232 13.3333 2.90036 13.4211 2.74408 13.5773C2.5878 13.7336 2.5 13.9456 2.5 14.1666C2.5 14.3876 2.5878 14.5996 2.74408 14.7559C2.90036 14.9121 3.11232 14.9999 3.33333 14.9999H4.16667C4.38768 14.9999 4.59964 14.9121 4.75592 14.7559C4.9122 14.5996 5 14.3876 5 14.1666ZM11.6667 10.8333C11.6667 10.5036 11.5689 10.1814 11.3858 9.90732C11.2026 9.63324 10.9423 9.41962 10.6378 9.29347C10.3333 9.16732 9.99815 9.13432 9.67485 9.19863C9.35155 9.26294 9.05458 9.42167 8.82149 9.65476C8.5884 9.88785 8.42967 10.1848 8.36536 10.5081C8.30105 10.8314 8.33405 11.1665 8.4602 11.4711C8.58635 11.7756 8.79997 12.0359 9.07405 12.2191C9.34813 12.4022 9.67036 12.4999 10 12.4999C10.442 12.4999 10.8659 12.3243 11.1785 12.0118C11.4911 11.6992 11.6667 11.2753 11.6667 10.8333ZM17.5 17.4999C17.5 17.2789 17.4122 17.067 17.2559 16.9107C17.0996 16.7544 16.8877 16.6666 16.6667 16.6666H15.8333C15.6123 16.6666 15.4004 16.7544 15.2441 16.9107C15.0878 17.067 15 17.2789 15 17.4999C15 17.7209 15.0878 17.9329 15.2441 18.0892C15.4004 18.2455 15.6123 18.3333 15.8333 18.3333H16.6667C16.8877 18.3333 17.0996 18.2455 17.2559 18.0892C17.4122 17.9329 17.5 17.7209 17.5 17.4999ZM16.6667 13.3333H15.8333C15.6123 13.3333 15.4004 13.4211 15.2441 13.5773C15.0878 13.7336 15 13.9456 15 14.1666C15 14.3876 15.0878 14.5996 15.2441 14.7559C15.4004 14.9121 15.6123 14.9999 15.8333 14.9999H16.6667C16.8877 14.9999 17.0996 14.9121 17.2559 14.7559C17.4122 14.5996 17.5 14.3876 17.5 14.1666C17.5 13.9456 17.4122 13.7336 17.2559 13.5773C17.0996 13.4211 16.8877 13.3333 16.6667 13.3333Z" fill="#1FA3D8"/>
</g>
<defs>
<clipPath id="clip0_427_78">
<rect width="20" height="20" fill="white"/>
</clipPath>
</defs>
</svg>
