<svg width="16" height="16" viewBox="0 0 16 16" fill="none" xmlns="http://www.w3.org/2000/svg">
<g clip-path="url(#clip0_605_1523)">
<path d="M12.6006 11.1837C13.665 9.76128 14.151 7.9885 13.9609 6.22218C13.7707 4.45586 12.9185 2.82715 11.5758 1.6639C10.233 0.500654 8.4995 -0.11076 6.72411 -0.0472647C4.94871 0.0162304 3.26328 0.74992 2.00709 2.00611C0.750896 3.26231 0.017207 4.94774 -0.0462882 6.72313C-0.109783 8.49852 0.50163 10.2321 1.66488 11.5748C2.82812 12.9175 4.45683 13.7697 6.22315 13.9599C7.98947 14.15 9.76226 13.664 11.1846 12.5997L14.5846 15.9997L16.0006 14.5863L12.6006 11.1837ZM7.00065 11.9997C6.01174 11.9997 5.04504 11.7064 4.2228 11.157C3.40055 10.6076 2.75969 9.82672 2.38125 8.91309C2.00281 7.99946 1.9038 6.99413 2.09672 6.02422C2.28965 5.05432 2.76585 4.1634 3.46511 3.46414C4.16438 2.76488 5.05529 2.28867 6.0252 2.09575C6.9951 1.90282 8.00044 2.00184 8.91407 2.38027C9.8277 2.75871 10.6086 3.39957 11.158 4.22182C11.7074 5.04407 12.0006 6.01077 12.0006 6.99967C11.9994 8.32538 11.4722 9.59643 10.5348 10.5338C9.5974 11.4713 8.32635 11.9984 7.00065 11.9997Z" fill="#8F8B8B"/>
</g>
<defs>
<clipPath id="clip0_605_1523">
<rect width="16" height="16" fill="white"/>
</clipPath>
</defs>
</svg>
