<svg width="30" height="30" viewBox="0 0 30 30" fill="none" xmlns="http://www.w3.org/2000/svg">
<path d="M27.0938 18.3315L25.1748 16.6909C25.2656 16.1343 25.3125 15.5659 25.3125 14.9976C25.3125 14.4292 25.2656 13.8608 25.1748 13.3042L27.0938 11.6636C27.2385 11.5397 27.3421 11.3746 27.3908 11.1904C27.4394 11.0062 27.4309 10.8116 27.3662 10.6323L27.3398 10.5562C26.8116 9.07967 26.0205 7.71094 25.0049 6.51611L24.9522 6.45459C24.8289 6.30972 24.6647 6.20559 24.4812 6.1559C24.2976 6.10622 24.1033 6.11332 23.9238 6.17627L21.542 7.02295C20.6631 6.30225 19.6816 5.73389 18.6211 5.33545L18.1611 2.84521C18.1264 2.65784 18.0355 2.48546 17.9005 2.35097C17.7655 2.21648 17.5928 2.12626 17.4053 2.09229L17.3262 2.07764C15.7998 1.80225 14.1943 1.80225 12.668 2.07764L12.5889 2.09229C12.4014 2.12626 12.2286 2.21648 12.0936 2.35097C11.9586 2.48546 11.8677 2.65784 11.833 2.84521L11.3701 5.34717C10.318 5.74569 9.33829 6.31375 8.46973 7.02881L6.07032 6.17627C5.89092 6.11282 5.69646 6.10546 5.51278 6.15517C5.32911 6.20489 5.1649 6.30932 5.042 6.45459L4.98926 6.51611C3.97485 7.71179 3.18392 9.08028 2.6543 10.5562L2.62794 10.6323C2.4961 10.9985 2.6045 11.4087 2.9004 11.6636L4.84278 13.3218C4.75196 13.8726 4.70801 14.4351 4.70801 14.9946C4.70801 15.5571 4.75196 16.1196 4.84278 16.6675L2.9004 18.3257C2.75566 18.4496 2.65207 18.6146 2.6034 18.7988C2.55473 18.983 2.56329 19.1777 2.62794 19.3569L2.6543 19.4331C3.18458 20.9097 3.96973 22.272 4.98926 23.4731L5.042 23.5347C5.1652 23.6795 5.32941 23.7837 5.51298 23.8334C5.69655 23.883 5.89087 23.8759 6.07032 23.813L8.46973 22.9605C9.34278 23.6782 10.3184 24.2466 11.3701 24.6421L11.833 27.144C11.8677 27.3314 11.9586 27.5038 12.0936 27.6383C12.2286 27.7728 12.4014 27.863 12.5889 27.897L12.668 27.9116C14.2084 28.1885 15.7858 28.1885 17.3262 27.9116L17.4053 27.897C17.5928 27.863 17.7655 27.7728 17.9005 27.6383C18.0355 27.5038 18.1264 27.3314 18.1611 27.144L18.6211 24.6538C19.6812 24.2564 20.6682 23.6862 21.542 22.9663L23.9238 23.813C24.1032 23.8764 24.2977 23.8838 24.4814 23.8341C24.665 23.7844 24.8292 23.6799 24.9522 23.5347L25.0049 23.4731C26.0244 22.269 26.8096 20.9097 27.3398 19.4331L27.3662 19.3569C27.4981 18.9966 27.3897 18.5864 27.0938 18.3315ZM23.0947 13.6499C23.168 14.0923 23.2061 14.5464 23.2061 15.0005C23.2061 15.4546 23.168 15.9087 23.0947 16.3511L22.9014 17.5259L25.0898 19.3979C24.7581 20.1623 24.3393 20.8858 23.8418 21.5542L21.1231 20.5903L20.2031 21.3462C19.5029 21.9204 18.7236 22.3716 17.8799 22.688L16.7637 23.1069L16.2393 25.9487C15.4118 26.0425 14.5765 26.0425 13.749 25.9487L13.2246 23.1011L12.1172 22.6763C11.2822 22.3599 10.5059 21.9087 9.81153 21.3374L8.89161 20.5786L6.15528 21.5513C5.65723 20.8804 5.24122 20.1567 4.90723 19.395L7.11915 17.5054L6.92872 16.3335C6.8584 15.897 6.82032 15.4458 6.82032 15.0005C6.82032 14.5522 6.85547 14.104 6.92872 13.6675L7.11915 12.4956L4.90723 10.606C5.23829 9.84131 5.65723 9.1206 6.15528 8.44971L8.89161 9.42236L9.81153 8.66357C10.5059 8.09229 11.2822 7.64111 12.1172 7.32471L13.2275 6.90576L13.752 4.05811C14.5752 3.96436 15.416 3.96436 16.2422 4.05811L16.7666 6.8999L17.8828 7.31885C18.7236 7.63525 19.5059 8.08643 20.2061 8.66064L21.126 9.4165L23.8447 8.45264C24.3428 9.12354 24.7588 9.84717 25.0928 10.6089L22.9043 12.481L23.0947 13.6499ZM15 9.55127C12.1523 9.55127 9.84376 11.8599 9.84376 14.7075C9.84376 17.5552 12.1523 19.8638 15 19.8638C17.8477 19.8638 20.1563 17.5552 20.1563 14.7075C20.1563 11.8599 17.8477 9.55127 15 9.55127ZM17.3203 17.0278C17.016 17.333 16.6543 17.5751 16.2561 17.74C15.8579 17.9049 15.431 17.9894 15 17.9888C14.124 17.9888 13.3008 17.646 12.6797 17.0278C12.3745 16.7235 12.1325 16.3618 11.9676 15.9636C11.8026 15.5654 11.7181 15.1385 11.7188 14.7075C11.7188 13.8315 12.0615 13.0083 12.6797 12.3872C13.3008 11.7661 14.124 11.4263 15 11.4263C15.876 11.4263 16.6992 11.7661 17.3203 12.3872C17.6255 12.6915 17.8675 13.0532 18.0325 13.4514C18.1974 13.8496 18.2819 14.2765 18.2813 14.7075C18.2813 15.5835 17.9385 16.4067 17.3203 17.0278Z" fill="black"/>
</svg>
