<svg width="29" height="28" viewBox="0 0 29 28" fill="none" xmlns="http://www.w3.org/2000/svg">
<path d="M14.5002 16.3335C14.7309 16.3335 14.9565 16.2651 15.1483 16.1369C15.3402 16.0087 15.4897 15.8265 15.578 15.6133C15.6663 15.4001 15.6894 15.1655 15.6444 14.9392C15.5994 14.7129 15.4883 14.505 15.3251 14.3419C15.162 14.1787 14.9541 14.0676 14.7278 14.0226C14.5015 13.9776 14.2669 14.0007 14.0537 14.089C13.8405 14.1773 13.6583 14.3268 13.5301 14.5187C13.4019 14.7105 13.3335 14.9361 13.3335 15.1668C13.3335 15.4762 13.4564 15.773 13.6752 15.9918C13.894 16.2106 14.1907 16.3335 14.5002 16.3335ZM20.3335 16.3335C20.5642 16.3335 20.7898 16.2651 20.9817 16.1369C21.1735 16.0087 21.3231 15.8265 21.4114 15.6133C21.4997 15.4001 21.5228 15.1655 21.4777 14.9392C21.4327 14.7129 21.3216 14.505 21.1585 14.3419C20.9953 14.1787 20.7874 14.0676 20.5611 14.0226C20.3348 13.9776 20.1002 14.0007 19.887 14.089C19.6739 14.1773 19.4916 14.3268 19.3634 14.5187C19.2353 14.7105 19.1668 14.9361 19.1668 15.1668C19.1668 15.4762 19.2897 15.773 19.5085 15.9918C19.7273 16.2106 20.0241 16.3335 20.3335 16.3335ZM14.5002 21.0002C14.7309 21.0002 14.9565 20.9317 15.1483 20.8035C15.3402 20.6754 15.4897 20.4931 15.578 20.28C15.6663 20.0668 15.6894 19.8322 15.6444 19.6059C15.5994 19.3796 15.4883 19.1717 15.3251 19.0085C15.162 18.8454 14.9541 18.7343 14.7278 18.6892C14.5015 18.6442 14.2669 18.6673 14.0537 18.7556C13.8405 18.8439 13.6583 18.9935 13.5301 19.1853C13.4019 19.3772 13.3335 19.6028 13.3335 19.8335C13.3335 20.1429 13.4564 20.4397 13.6752 20.6585C13.894 20.8772 14.1907 21.0002 14.5002 21.0002ZM20.3335 21.0002C20.5642 21.0002 20.7898 20.9317 20.9817 20.8035C21.1735 20.6754 21.3231 20.4931 21.4114 20.28C21.4997 20.0668 21.5228 19.8322 21.4777 19.6059C21.4327 19.3796 21.3216 19.1717 21.1585 19.0085C20.9953 18.8454 20.7874 18.7343 20.5611 18.6892C20.3348 18.6442 20.1002 18.6673 19.887 18.7556C19.6739 18.8439 19.4916 18.9935 19.3634 19.1853C19.2353 19.3772 19.1668 19.6028 19.1668 19.8335C19.1668 20.1429 19.2897 20.4397 19.5085 20.6585C19.7273 20.8772 20.0241 21.0002 20.3335 21.0002ZM8.66683 16.3335C8.89757 16.3335 9.12314 16.2651 9.31499 16.1369C9.50685 16.0087 9.65639 15.8265 9.74469 15.6133C9.83299 15.4001 9.8561 15.1655 9.81108 14.9392C9.76606 14.7129 9.65495 14.505 9.49179 14.3419C9.32863 14.1787 9.12075 14.0676 8.89444 14.0226C8.66812 13.9776 8.43355 14.0007 8.22037 14.089C8.00719 14.1773 7.82498 14.3268 7.69678 14.5187C7.56859 14.7105 7.50016 14.9361 7.50016 15.1668C7.50016 15.4762 7.62308 15.773 7.84187 15.9918C8.06066 16.2106 8.35741 16.3335 8.66683 16.3335ZM22.6668 4.66683H21.5002V3.50016C21.5002 3.19074 21.3772 2.894 21.1585 2.6752C20.9397 2.45641 20.6429 2.3335 20.3335 2.3335C20.0241 2.3335 19.7273 2.45641 19.5085 2.6752C19.2897 2.894 19.1668 3.19074 19.1668 3.50016V4.66683H9.8335V3.50016C9.8335 3.19074 9.71058 2.894 9.49179 2.6752C9.27299 2.45641 8.97625 2.3335 8.66683 2.3335C8.35741 2.3335 8.06066 2.45641 7.84187 2.6752C7.62308 2.894 7.50016 3.19074 7.50016 3.50016V4.66683H6.3335C5.40524 4.66683 4.515 5.03558 3.85862 5.69196C3.20225 6.34833 2.8335 7.23857 2.8335 8.16683V22.1668C2.8335 23.0951 3.20225 23.9853 3.85862 24.6417C4.515 25.2981 5.40524 25.6668 6.3335 25.6668H22.6668C23.5951 25.6668 24.4853 25.2981 25.1417 24.6417C25.7981 23.9853 26.1668 23.0951 26.1668 22.1668V8.16683C26.1668 7.23857 25.7981 6.34833 25.1417 5.69196C24.4853 5.03558 23.5951 4.66683 22.6668 4.66683ZM23.8335 22.1668C23.8335 22.4762 23.7106 22.773 23.4918 22.9918C23.273 23.2106 22.9762 23.3335 22.6668 23.3335H6.3335C6.02408 23.3335 5.72733 23.2106 5.50854 22.9918C5.28975 22.773 5.16683 22.4762 5.16683 22.1668V11.6668H23.8335V22.1668ZM23.8335 9.3335H5.16683V8.16683C5.16683 7.85741 5.28975 7.56066 5.50854 7.34187C5.72733 7.12308 6.02408 7.00016 6.3335 7.00016H22.6668C22.9762 7.00016 23.273 7.12308 23.4918 7.34187C23.7106 7.56066 23.8335 7.85741 23.8335 8.16683V9.3335ZM8.66683 21.0002C8.89757 21.0002 9.12314 20.9317 9.31499 20.8035C9.50685 20.6754 9.65639 20.4931 9.74469 20.28C9.83299 20.0668 9.8561 19.8322 9.81108 19.6059C9.76606 19.3796 9.65495 19.1717 9.49179 19.0085C9.32863 18.8454 9.12075 18.7343 8.89444 18.6892C8.66812 18.6442 8.43355 18.6673 8.22037 18.7556C8.00719 18.8439 7.82498 18.9935 7.69678 19.1853C7.56859 19.3772 7.50016 19.6028 7.50016 19.8335C7.50016 20.1429 7.62308 20.4397 7.84187 20.6585C8.06066 20.8772 8.35741 21.0002 8.66683 21.0002Z" fill="black"/>
</svg>
