<svg width="12" height="12" viewBox="0 0 12 12" fill="none" xmlns="http://www.w3.org/2000/svg">
<g clip-path="url(#clip0_506_164)">
<path d="M7 2.49989H0.545C0.7845 1.08339 2.0165 -0.000107968 3.5 -0.000107968C4.6075 -0.000107968 5.5745 0.604892 6.094 1.49989H7C7.2765 1.49989 7.5 1.72339 7.5 1.99989C7.5 2.27639 7.2765 2.49989 7 2.49989ZM3.5 5.99989C4.9835 5.99989 6.2155 4.91639 6.455 3.49989H0.545C0.784 4.91639 2.016 5.99989 3.5 5.99989ZM11.7825 1.68189L10 2.62439V5.09939C10 5.48439 9.852 5.85439 9.5865 6.13289L6.7235 9.13789C6.901 9.55639 7 10.0164 7 10.4989V10.9989C7 11.5514 6.5525 11.9989 6 11.9989H1C0.4475 11.9989 0 11.5514 0 10.9989V10.4989C0 8.56589 1.567 6.99889 3.5 6.99889H6.1385C6.2555 6.99889 6.3685 6.95789 6.458 6.88339L8.82 4.91439C8.934 4.81939 9 4.67839 9 4.52939V0.499892C9 0.232892 9.211 0.00289203 9.4775 -0.000107968C9.7855 -0.00360797 10.0905 0.060392 10.3755 0.188392L11.782 0.817892C12.0725 1.01739 12.0725 1.48239 11.782 1.68239L11.7825 1.68189Z" fill="#1FA3D8"/>
</g>
<defs>
<clipPath id="clip0_506_164">
<rect width="12" height="12" fill="white"/>
</clipPath>
</defs>
</svg>
